<svg width="24" height="24" viewBox="0 0 24 24" fill="none" xmlns="http://www.w3.org/2000/svg">
<path d="M5 6.5a2 2 0 0 1 2-2h3a2 2 0 0 1 2 2v2a2 2 0 0 1-2 2H9l-2 1.5V10.5H7a2 2 0 0 1-2-2v-2Z" stroke="#BDBDBD" stroke-width="1.5" opacity="0.7"/>
<path d="M12 6.5a2 2 0 0 1 2-2h3a2 2 0 0 1 2 2v2a2 2 0 0 1-2 2h-1l-2 1.5V10.5h-0a2 2 0 0 1-2-2v-2Z" stroke="#BDBDBD" stroke-width="1.5"/>
<path d="M4 18h16" stroke="#BDBDBD" stroke-width="1.5" opacity="0.5"/>
<circle cx="10" cy="18" r="2" fill="#BDBDBD"/>
</svg>
